<svg width="65" height="36" viewBox="0 0 80 52" fill="none" xmlns="http://www.w3.org/2000/svg">
<path d="M46.4044 41.998C49.0971 38.7582 50.9699 34.9175 51.8644 30.8008C52.7589 26.6841 52.6487 22.4126 51.5432 18.3475C50.4376 14.2824 48.3693 10.5434 45.5131 7.44675C42.6569 4.35009 39.0969 1.9869 35.1343 0.557078C31.1716 -0.872741 26.9228 -1.32712 22.7474 -0.76762C18.572 -0.20812 14.5928 1.3488 11.1463 3.77143C7.69991 6.19406 4.88765 9.41113 2.94749 13.1505C1.00732 16.8899 -0.00367986 21.0415 1.00643e-05 25.2542C0.00142602 31.3783 2.15953 37.3063 6.09564 41.998L6.05814 42.0299C6.18939 42.1874 6.33939 42.3224 6.47439 42.478C6.64314 42.6711 6.82501 42.853 6.99939 43.0405C7.52439 43.6105 8.06439 44.158 8.63064 44.6717C8.80314 44.8292 8.98126 44.9755 9.15563 45.1255C9.75564 45.643 10.3725 46.1342 11.0119 46.5917C11.0944 46.648 11.1694 46.7211 11.2519 46.7792V46.7567C15.6433 49.847 20.8821 51.5056 26.2519 51.5056C31.6217 51.5056 36.8604 49.847 41.2519 46.7567V46.7792C41.3344 46.7211 41.4075 46.648 41.4919 46.5917C42.1294 46.1324 42.7481 45.643 43.3481 45.1255C43.5225 44.9755 43.7006 44.8274 43.8731 44.6717C44.4394 44.1561 44.9794 43.6105 45.5044 43.0405C45.6788 42.853 45.8588 42.6711 46.0294 42.478C46.1625 42.3224 46.3144 42.1874 46.4456 42.028L46.4044 41.998ZM26.25 10.2542C27.9188 10.2542 29.5501 10.7491 30.9376 11.6762C32.3252 12.6033 33.4066 13.9211 34.0452 15.4628C34.6839 17.0046 34.851 18.7011 34.5254 20.3378C34.1998 21.9745 33.3962 23.4779 32.2162 24.6579C31.0362 25.838 29.5328 26.6415 27.8961 26.9671C26.2594 27.2927 24.5629 27.1256 23.0211 26.487C21.4794 25.8484 20.1616 24.7669 19.2345 23.3794C18.3074 21.9918 17.8125 20.3605 17.8125 18.6917C17.8125 16.454 18.7015 14.3079 20.2838 12.7255C21.8661 11.1432 24.0122 10.2542 26.25 10.2542ZM11.2631 41.998C11.2957 39.536 12.2962 37.1859 14.0482 35.456C15.8002 33.7261 18.1629 32.7555 20.625 32.7542H31.875C34.3372 32.7555 36.6998 33.7261 38.4518 35.456C40.2039 37.1859 41.2044 39.536 41.2369 41.998C37.1247 45.7036 31.7855 47.7544 26.25 47.7544C20.7145 47.7544 15.3753 45.7036 11.2631 41.998Z" fill="#FF7A00"/>
<path d="M79.5603 22.5147L71.3466 32.8405C70.5675 33.7851 69.3662 33.7851 68.6196 32.8405L60.4059 22.5147C59.6267 21.5375 60.0163 20.7883 61.2175 20.7883H78.7487C79.9823 20.7883 80.3394 21.5375 79.5603 22.5147Z" fill="#FF7A00"/>
</svg>
